<svg xmlns="http://www.w3.org/2000/svg" width="160" height="160" viewBox="0 0 160 160">
  <title>공원 최종 채용</title>
  <circle cx="80" cy="80" r="66" fill="none" stroke="#C5E1C3" stroke-width="12"/><circle cx="80" cy="80" r="59" fill="#69A56D" stroke="#343A39" stroke-width="7"/><circle cx="80" cy="80" r="42" fill="#F7F1E4" stroke="#343A39" stroke-width="5"/>
  <path d="M75 80h10l2 35H73z" fill="#786B58" stroke="#3E4940" stroke-width="3" stroke-linejoin="round"/><path d="M48 82c0-20 14-35 32-35 19 0 32 15 32 35-10 8-20 10-32 5-11 6-22 4-32-5z" fill="#739E70" stroke="#3E6746" stroke-width="3.5" stroke-linejoin="round"/><path d="M80 48c19 0 32 15 32 34-8 6-18 8-32 5z" fill="#8CB486"/><path d="M80 94V60M80 78L64 68M80 82l17-13" fill="none" stroke="#4E7652" stroke-width="3" stroke-linecap="round"/><path d="M57 116h46" stroke="#3E4940" stroke-width="4" stroke-linecap="round"/>
</svg>
